<?xml version="1.0" encoding="UTF-8" standalone="no"?>
<!DOCTYPE svg PUBLIC "-//W3C//DTD SVG 1.1//EN" "http://www.w3.org/Graphics/SVG/1.1/DTD/svg11.dtd">
<svg width="100%" height="100%" viewBox="0 0 562 485" version="1.1" xmlns="http://www.w3.org/2000/svg" xmlns:xlink="http://www.w3.org/1999/xlink" xml:space="preserve" xmlns:serif="http://www.serif.com/" style="fill-rule:evenodd;clip-rule:evenodd;stroke-linejoin:round;stroke-miterlimit:1.41421;">
    <g id="Artboard1" transform="matrix(0.983659,0,0,0.952817,-834.719,-784.89)">
        <rect x="848.586" y="823.757" width="570.677" height="508.634" style="fill:none;"/>
        <g transform="matrix(1.01661,0,0,1.04952,511.166,-12.6932)">
            <path d="M705.58,909.025C683.722,906.046 661.444,906.046 639.586,909.025L631.104,969.962C611.247,975.197 593.018,984.123 577.745,996.091L511.284,971.853C497.313,986.418 486.174,1002.78 478.287,1020.33L536.266,1057.03C531.683,1074.23 531.683,1092.08 536.266,1109.28L478.287,1145.98C486.174,1163.53 497.313,1179.89 511.284,1194.46L577.745,1170.22C593.018,1182.19 611.247,1191.11 631.104,1196.35L639.586,1257.29C661.444,1260.26 683.722,1260.26 705.58,1257.29L714.062,1196.35C733.919,1191.11 752.148,1182.19 767.421,1170.22L833.882,1194.46C847.853,1179.89 858.992,1163.53 866.879,1145.98L808.9,1109.28C813.483,1092.08 813.483,1074.23 808.9,1057.03L866.879,1020.33C858.992,1002.78 847.853,986.418 833.882,971.853L767.421,996.091C752.148,984.123 733.919,975.197 714.062,969.962L705.58,909.025ZM672.583,1005.04C723.415,1005.04 764.685,1040.04 764.685,1083.15C764.685,1126.27 723.415,1161.27 672.583,1161.27C621.751,1161.27 580.481,1126.27 580.481,1083.15C580.481,1040.04 621.751,1005.04 672.583,1005.04Z" style="fill:rgb(15,8,8);"/>
        </g>
        <g transform="matrix(1.01661,0,0,-1.09222,549.436,2771.97)">
            <path d="M658.728,1739.61L297.683,1739.61L301.965,1485.63L610.046,1485.63L658.728,1739.61Z" style="fill:white;"/>
        </g>
        <g transform="matrix(1.01661,0,0,1.04952,-25.0152,-46.471)">
            <text x="926.025px" y="1122.17px" style="font-family:'Charter-BoldItalic', 'Charter', serif;font-weight:700;font-style:italic;font-size:600px;">µ</text>
        </g>
    </g>
</svg>
